<svg width="37" height="39" viewBox="0 0 37 39" fill="none" xmlns="http://www.w3.org/2000/svg">
<path d="M17.3548 1.19795C16.0333 2.17406 15.8571 3.50512 16.0333 7.94198C16.2976 13.5324 16.2976 13.5324 12.1571 17.7918C9.86667 20.1877 7.57619 22.1399 7.04762 22.1399C5.37381 22.1399 1.7619 17.8805 1.7619 15.9283C1.7619 14.9522 1.40952 14.1536 0.880952 14.1536C0.352381 14.1536 0 16.5495 0 19.5666C0 24.802 0.0880952 24.9795 4.40476 29.2389C7.84048 32.6109 8.80952 34.2082 8.80952 36.2491C8.80952 38.3788 9.16191 39 10.5714 39C12.5095 39 13.0381 36.6928 11.2762 36.1604C10.5714 35.8942 11.1 34.8294 12.7738 33.2321C14.3595 31.5461 15.4167 31.0137 15.681 31.7235C15.8571 32.3447 16.5619 32.7884 17.2667 32.7884C18.0595 32.7884 18.5 33.7645 18.5 35.8942C18.5 38.0239 18.9405 39 19.7333 39C21.4071 39 22.6405 36.959 21.319 36.5154C19.2929 35.8942 20.1738 31.8123 22.9048 29.2389C24.4905 27.7304 25.5476 25.8669 25.5476 24.4471C25.5476 23.2048 25.9881 22.1399 26.4286 22.1399C26.9571 22.1399 27.3095 22.4949 27.3095 23.0273C27.3095 23.471 27.75 23.9147 28.1905 23.9147C28.719 23.9147 29.0714 23.116 29.0714 22.1399C29.0714 20.9863 28.4548 20.3652 27.3095 20.3652C25.9 20.3652 25.5476 19.744 25.5476 17.2594C25.5476 14.2423 25.6357 14.1536 29.0714 14.1536C31.0095 14.1536 32.5952 13.7099 32.5952 13.2662C32.5952 12.7338 31.0095 12.3788 29.0714 12.3788C27.1333 12.3788 25.5476 11.9352 25.5476 11.4915C25.5476 10.959 28.0143 10.6041 31.2738 10.6041H37V6.52218C37 3.59386 36.5595 1.99659 35.5024 1.19795C33.3 -0.399319 19.469 -0.399319 17.3548 1.19795ZM23.7857 3.50512C23.7857 4.6587 23.169 5.27986 22.0238 5.27986C20.8786 5.27986 20.2619 4.6587 20.2619 3.50512C20.2619 2.35154 20.8786 1.73037 22.0238 1.73037C23.169 1.73037 23.7857 2.35154 23.7857 3.50512Z" fill="white"/>
</svg>
